<?xml version="1.0" encoding="utf-8"?>
<!-- Generator: Adobe Illustrator 25.1.0, SVG Export Plug-In . SVG Version: 6.00 Build 0)  -->
<svg version="1.1"
	 id="svg2" xmlns:cc="http://creativecommons.org/ns#" xmlns:dc="http://purl.org/dc/elements/1.1/" xmlns:rdf="http://www.w3.org/1999/02/22-rdf-syntax-ns#" xmlns:svg="http://www.w3.org/2000/svg"
	 xmlns="http://www.w3.org/2000/svg" xmlns:xlink="http://www.w3.org/1999/xlink" x="0px" y="0px" viewBox="0 0 2560 1440"
	 style="enable-background:new 0 0 2560 1440;" xml:space="preserve">
<style type="text/css">
	.st0{clip-path:url(#SVGID_2_);}
	.st1{fill:#FFDA67;}
	.st2{fill:#FFD371;}
	.st3{fill:#FFCB80;}
</style>
<g id="g10" transform="matrix(1.3333333,0,0,-1.3333333,0,1440)">
	<g id="g12">
		<g>
			<defs>
				<rect id="SVGID_1_" x="-320" y="-180" width="2560" height="1440"/>
			</defs>
			<clipPath id="SVGID_2_">
				<use xlink:href="#SVGID_1_"  style="overflow:visible;"/>
			</clipPath>
			<g id="g14" class="st0">
				<g id="g20" transform="translate(1920,46.543)">
					<path id="path22" class="st1" d="M0,0c-77.9-13-160.7-3.1-201.9,8.1c-19,5.2-30,9.1-39.6,11.2c-108.4,23.7-351.5,18.1-456,12
						c-24.6-1.4-49.1-4.1-73.6-7.2c-234.9-30.7-514.2,23-514.2,23c-348.3,61.3-634.6-18.5-634.6-18.5v59.4
						c0,0,309.8,130.4,742.7,3.6c5.9-1.7,11.8-3.7,17.6-5.7c22-7.6,115.4-31.7,360.7-5.2c17.9,1.9,35.6,6,52.8,11.9
						c51.6,17.6,199.8,53,457.2-1.8c0,0,199-51.7,289.1-36.2V0z"/>
				</g>
				<g id="g24" transform="translate(0.001,172.748)">
					<path id="path26" class="st2" d="M0,0c0.3,0.1,310.3,134.3,793.6-15.3c0,0,186.7-12.1,283.4-8.6c20.9,0.7,41.6,3.9,61.8,9.3
						c73.8,19.6,343.8,77.7,687.7-9.9c0,0,52.5-16.1,93.3-0.1c0.1,0,0.2,0,0.2-0.1V-74c0,0-104.9-13.1-251.3,25.6
						c0,0-274.5,73.4-495,10.3c0,0-46.5-15.4-89.4-14.7c0,0-211.9-25.5-323.6,8.2c0,0-382.1,127-760.7,2.1c0,0,0,0,0,0V0
						C0,0,0,0,0,0"/>
				</g>
				<g id="g28" transform="translate(0.001,169.0791)">
					<path id="path30" class="st3" d="M0,0v910.9h1920V-23.9c0,0-45.2-17.1-93.5,0c0,0-360.6,98.3-707.7,4c0,0-246.2-20.7-325.2,4.9
						C793.6-14.9,341.6,127.5,0,0"/>
				</g>
			</g>
		</g>
	</g>
</g>
</svg>
